<?xml version="1.0" standalone="no"?>
<!DOCTYPE svg PUBLIC "-//W3C//DTD SVG 20010904//EN"
 "http://www.w3.org/TR/2001/REC-SVG-20010904/DTD/svg10.dtd">
<svg version="1.0" xmlns="http://www.w3.org/2000/svg"
 width="564.000000pt" height="564.000000pt" viewBox="0 0 564.000000 564.000000"
 preserveAspectRatio="xMidYMid meet">
<metadata>
Created by potrace 1.11, written by Peter Selinger 2001-2013
</metadata>
<g transform="translate(0.000000,564.000000) scale(0.100000,-0.100000)"
fill="#000000" stroke="none">
<path d="M5505 5586 c-133 -48 -301 -115 -383 -152 -29 -13 -55 -24 -58 -24
-2 0 -91 -42 -197 -94 -378 -185 -699 -382 -1027 -632 -74 -57 -147 -113 -162
-126 -15 -13 -48 -41 -75 -63 -163 -136 -463 -424 -601 -580 -30 -33 -66 -73
-81 -90 -253 -284 -581 -752 -774 -1105 -181 -330 -369 -750 -466 -1040 -12
-36 -27 -73 -32 -83 -6 -11 -9 -21 -7 -22 2 -2 127 67 278 153 l273 157 33
115 c95 338 247 624 423 801 53 52 77 69 123 83 89 27 222 24 378 -10 36 -7
77 -16 93 -18 15 -3 35 -7 45 -10 17 -5 22 -6 127 -24 206 -36 368 -30 460 16
83 42 436 453 405 472 -8 5 -30 11 -49 15 -51 9 -216 63 -281 92 -83 38 -179
98 -230 142 l-45 40 45 1 c65 2 135 10 240 26 58 9 260 54 330 74 160 46 338
103 344 112 4 4 90 139 99 155 5 7 -11 17 -45 28 -29 10 -57 21 -63 25 -5 4
-30 15 -54 24 -67 26 -171 89 -221 135 -37 33 -42 40 -25 42 74 5 200 19 221
23 12 2 38 7 59 10 54 9 252 54 310 71 38 11 54 22 69 47 53 91 86 148 113
194 l30 50 -91 39 c-94 39 -234 125 -274 167 l-22 25 52 1 c84 3 153 12 293
38 180 34 223 47 240 71 27 38 160 305 202 404 37 87 106 270 100 268 -1 0
-56 -20 -122 -43z"/>
<path d="M640 5000 c-5 -3 -8 -985 -8 -2183 l0 -2177 22 -1 c11 0 994 -1 2183
-2 1724 -2 2163 1 2164 11 5 69 2 2942 -2 2942 -4 0 -33 -33 -65 -73 -33 -39
-62 -74 -65 -77 -3 -3 -21 -26 -40 -51 -19 -26 -124 -159 -233 -295 -109 -137
-203 -255 -209 -262 -6 -8 -10 -286 -10 -791 l0 -778 -1558 0 -1559 0 0 1557
0 1558 858 -1 857 0 308 308 c169 169 305 310 302 313 -6 7 -2934 9 -2945 2z"/>
</g>
</svg>
