<svg id="Layer_1" data-name="Layer 1" xmlns="http://www.w3.org/2000/svg" xmlns:xlink="http://www.w3.org/1999/xlink" width="27.64" height="28" viewBox="0 0 27.64 28"><defs><style>.cls-1{fill:none;clip-rule:evenodd;}.cls-2{clip-path:url(#clip-path);}.cls-3{fill:#3e82f1;}.cls-4{clip-path:url(#clip-path-2);}.cls-5{fill:#32a753;}.cls-6{clip-path:url(#clip-path-3);}.cls-7{fill:#f9bb00;}.cls-8{clip-path:url(#clip-path-4);}.cls-9{fill:#e74133;}</style><clipPath id="clip-path"><path class="cls-1" d="M22.64,14.2a10.34,10.34,0,0,0-.16-1.84H14v3.48h4.84A4.14,4.14,0,0,1,17,18.56v2.26H20a8.78,8.78,0,0,0,2.68-6.61Zm0,0"/></clipPath><clipPath id="clip-path-2"><path class="cls-1" d="M14,23a8.59,8.59,0,0,0,6-2.18L17,18.56A5.43,5.43,0,0,1,9,15.71H6V18a9,9,0,0,0,8,5Zm0,0"/></clipPath><clipPath id="clip-path-3"><path class="cls-1" d="M9,15.71a5.32,5.32,0,0,1,0-3.42V10H6A9,9,0,0,0,6,18l3-2.33Zm0,0"/></clipPath><clipPath id="clip-path-4"><path class="cls-1" d="M14,8.58a4.86,4.86,0,0,1,3.44,1.35L20,7.34A8.65,8.65,0,0,0,14,5a9,9,0,0,0-8,5l3,2.33a5.36,5.36,0,0,1,5-3.71Zm0,0"/></clipPath></defs><title>google</title><g class="cls-2"><rect class="cls-3" x="9" y="7.36" width="18.64" height="18.46"/></g><g class="cls-4"><rect class="cls-5" x="0.96" y="10.71" width="24" height="17.29"/></g><g class="cls-6"><rect class="cls-7" y="4.96" width="13.96" height="18.08"/></g><g class="cls-8"><rect class="cls-9" x="0.96" width="24.06" height="17.29"/></g></svg>